<?xml version="1.0" encoding="utf-8"?>
<!-- Generator: Adobe Illustrator 25.2.3, SVG Export Plug-In . SVG Version: 6.00 Build 0)  -->
<svg version="1.1" id="圖層_1" xmlns="http://www.w3.org/2000/svg" xmlns:xlink="http://www.w3.org/1999/xlink" x="0px" y="0px"
	 viewBox="0 0 320 114" style="enable-background:new 0 0 320 114;" xml:space="preserve">
<style type="text/css">
	.st0{fill:#C8C9CA;}
	.st1{fill:#FFFFFF;}
	.st2{fill:#008BD5;}
	.st3{fill:#003F76;}
	.st4{fill:#CCCCCC;}
	.st5{fill:#CCCCCC;stroke:#009FE8;stroke-width:0.25;stroke-miterlimit:10;}
	.st6{fill:#999999;}
	.st7{fill:#CE9900;}
	.st8{fill:#FA9900;}
	.st9{fill:#004077;}
</style>
<g>
	<g>
		<g>
			<path class="st0" d="M83.7,113.8H46.3L2,0.4h45.4l22.4,57.2L92.5,0.4h36.4L83.7,113.8z"/>
		</g>
		<g>
			<g>
				<polygon class="st0" points="232.7,50.9 221.8,71.3 243.4,71.3 				"/>
			</g>
			<g>
				<path class="st0" d="M299.6,37.4l-13,16.3l-12.9-16.3h-20.5v21.8l-11.5-21.8h-18.1l-9.9,18.7V37.4h-98.4v23h14.5v30.5h23.6V60.4
					h6.4v30.5h62l4.1-8h13.3l4.1,8h33.4V78l9.7,12.3l9.9-12.5v13h23.6V37.4H299.6z M202.6,67.9l1.3-7.4h7.5l-3.9,7.4H202.6z"/>
			</g>
		</g>
	</g>
	<g>
		<g>
			<rect x="103" y="94.6" class="st2" width="217.1" height="19.2"/>
		</g>
		<g>
			<path class="st1" d="M111.7,98.2h4.1l1.6,6.1l1.6-6.1h4.1v10h-2.5v-7.6l-1.9,7.6h-2.3l-1.9-7.6v7.6h-2.5V98.2z"/>
			<path class="st1" d="M128.3,103.3l-2.6-0.3c0.1-0.5,0.2-0.8,0.4-1.1c0.2-0.3,0.5-0.5,0.8-0.7c0.3-0.1,0.6-0.2,1-0.3
				c0.4-0.1,0.9-0.1,1.4-0.1c0.8,0,1.5,0,2,0.1c0.5,0.1,0.9,0.3,1.3,0.6c0.2,0.2,0.4,0.5,0.6,0.9c0.1,0.4,0.2,0.7,0.2,1.1v3.2
				c0,0.3,0,0.6,0.1,0.8c0,0.2,0.1,0.4,0.3,0.7h-2.6c-0.1-0.2-0.2-0.3-0.2-0.4c0-0.1-0.1-0.3-0.1-0.5c-0.4,0.3-0.7,0.6-1.1,0.7
				c-0.5,0.2-1.1,0.3-1.7,0.3c-0.9,0-1.5-0.2-2-0.6c-0.4-0.4-0.7-0.9-0.7-1.5c0-0.5,0.2-1,0.5-1.4c0.3-0.4,0.9-0.6,1.8-0.8
				c1-0.2,1.7-0.4,2-0.4c0.3-0.1,0.6-0.2,1-0.3c0-0.3-0.1-0.6-0.2-0.7c-0.1-0.1-0.4-0.2-0.7-0.2c-0.5,0-0.8,0.1-1,0.2
				C128.5,102.8,128.4,103,128.3,103.3z M130.7,104.7c-0.4,0.1-0.8,0.3-1.2,0.4c-0.6,0.1-0.9,0.3-1.1,0.4c-0.2,0.1-0.2,0.3-0.2,0.5
				c0,0.2,0.1,0.4,0.2,0.5c0.2,0.1,0.4,0.2,0.7,0.2c0.3,0,0.6-0.1,0.9-0.2c0.3-0.1,0.5-0.3,0.6-0.5c0.1-0.2,0.2-0.5,0.2-0.8V104.7z"
				/>
			<path class="st1" d="M136.1,98.2h2.8v5.1l2.1-2.4h3.4l-2.6,2.5l2.7,4.7h-3.1l-1.5-2.9l-1,1v1.9h-2.8V98.2z"/>
			<path class="st1" d="M154,105.3h-5.6c0.1,0.4,0.2,0.8,0.4,1c0.3,0.3,0.6,0.5,1,0.5c0.3,0,0.5-0.1,0.8-0.2
				c0.1-0.1,0.3-0.2,0.5-0.5l2.7,0.3c-0.4,0.7-0.9,1.2-1.5,1.6c-0.6,0.3-1.4,0.5-2.5,0.5c-1,0-1.7-0.1-2.3-0.4
				c-0.5-0.3-1-0.7-1.4-1.3s-0.5-1.3-0.5-2.1c0-1.1,0.4-2,1.1-2.7c0.7-0.7,1.7-1,3-1c1,0,1.9,0.2,2.4,0.5c0.6,0.3,1.1,0.8,1.4,1.4
				c0.3,0.6,0.5,1.4,0.5,2.3V105.3z M151.2,103.9c-0.1-0.5-0.2-0.9-0.4-1.1c-0.2-0.2-0.5-0.3-0.9-0.3c-0.4,0-0.8,0.2-1.1,0.5
				c-0.2,0.2-0.3,0.5-0.3,1H151.2z"/>
			<path class="st1" d="M161.2,101h2.9l1.5,4.8l1.4-4.8h2.7l-2.9,7.7c-0.3,0.9-0.7,1.5-1,1.8c-0.5,0.4-1.2,0.7-2.2,0.7
				c-0.4,0-1-0.1-1.8-0.2l-0.2-1.9c0.4,0.1,0.8,0.2,1.3,0.2c0.3,0,0.6-0.1,0.8-0.2c0.2-0.1,0.4-0.4,0.5-0.8L161.2,101z"/>
			<path class="st1" d="M171,104.6c0-1.1,0.4-2,1.1-2.7c0.7-0.7,1.7-1.1,3-1.1c1.4,0,2.5,0.4,3.3,1.3c0.6,0.7,0.9,1.5,0.9,2.5
				c0,1.1-0.4,2-1.1,2.7c-0.7,0.7-1.8,1.1-3.1,1.1c-1.2,0-2.1-0.3-2.8-0.9C171.4,106.7,171,105.8,171,104.6z M173.7,104.6
				c0,0.6,0.1,1.1,0.4,1.4c0.3,0.3,0.6,0.5,1,0.5c0.4,0,0.7-0.2,1-0.5c0.3-0.3,0.4-0.8,0.4-1.5c0-0.6-0.1-1.1-0.4-1.4
				c-0.3-0.3-0.6-0.5-1-0.5c-0.4,0-0.7,0.2-1,0.5C173.9,103.5,173.7,103.9,173.7,104.6z"/>
			<path class="st1" d="M189.3,108.2h-2.6V107c-0.4,0.5-0.8,0.8-1.2,1c-0.4,0.2-0.9,0.3-1.4,0.3c-0.8,0-1.4-0.2-1.8-0.7
				c-0.4-0.5-0.6-1.2-0.6-2.1V101h2.8v4c0,0.5,0.1,0.8,0.3,1c0.2,0.2,0.4,0.3,0.7,0.3c0.3,0,0.6-0.1,0.8-0.4
				c0.2-0.3,0.3-0.7,0.3-1.4V101h2.8V108.2z"/>
			<path class="st1" d="M192,101h2.6v1.2c0.2-0.5,0.5-0.9,0.8-1.1c0.3-0.2,0.6-0.3,1-0.3c0.4,0,0.9,0.1,1.3,0.4l-0.9,2
				c-0.3-0.1-0.6-0.2-0.8-0.2c-0.4,0-0.6,0.1-0.8,0.4c-0.3,0.4-0.4,1.2-0.4,2.4v2.4H192V101z"/>
			<path class="st1" d="M204.4,106.2l2.7-0.3c0.1,0.3,0.3,0.6,0.5,0.7c0.2,0.1,0.5,0.2,0.8,0.2c0.4,0,0.7-0.1,0.9-0.2
				c0.2-0.1,0.2-0.3,0.2-0.4c0-0.2-0.1-0.4-0.3-0.5c-0.1-0.1-0.5-0.2-1.2-0.3c-1-0.2-1.6-0.3-2-0.5c-0.4-0.1-0.7-0.4-0.9-0.7
				c-0.3-0.3-0.4-0.7-0.4-1.2c0-0.5,0.1-0.9,0.4-1.2c0.3-0.3,0.7-0.6,1.1-0.8c0.5-0.2,1.1-0.3,2-0.3c0.9,0,1.5,0.1,1.9,0.2
				c0.4,0.1,0.8,0.3,1,0.6c0.3,0.3,0.5,0.7,0.7,1.1l-2.6,0.3c-0.1-0.2-0.2-0.4-0.3-0.5c-0.2-0.1-0.5-0.2-0.8-0.2
				c-0.3,0-0.5,0.1-0.7,0.2c-0.1,0.1-0.2,0.2-0.2,0.4c0,0.2,0.1,0.3,0.3,0.4c0.2,0.1,0.6,0.2,1.2,0.2c0.9,0.1,1.6,0.2,2.1,0.4
				c0.4,0.2,0.8,0.5,1,0.8c0.2,0.3,0.4,0.7,0.4,1.1c0,0.4-0.1,0.8-0.4,1.2c-0.3,0.4-0.6,0.7-1.2,0.9c-0.5,0.2-1.3,0.3-2.2,0.3
				c-1.3,0-2.3-0.2-2.8-0.6C204.9,107.4,204.6,106.9,204.4,106.2z"/>
			<path class="st1" d="M222.1,108.2h-2.6V107c-0.4,0.5-0.8,0.8-1.2,1c-0.4,0.2-0.9,0.3-1.4,0.3c-0.8,0-1.4-0.2-1.8-0.7
				c-0.4-0.5-0.6-1.2-0.6-2.1V101h2.8v4c0,0.5,0.1,0.8,0.3,1c0.2,0.2,0.4,0.3,0.7,0.3c0.3,0,0.6-0.1,0.8-0.4
				c0.2-0.3,0.3-0.7,0.3-1.4V101h2.8V108.2z"/>
			<path class="st1" d="M230.2,105.3l2.6,0.3c-0.1,0.5-0.4,1-0.7,1.4c-0.3,0.4-0.8,0.7-1.3,0.9c-0.5,0.2-1.2,0.3-2,0.3
				c-0.8,0-1.4-0.1-1.9-0.2c-0.5-0.1-0.9-0.4-1.3-0.7c-0.4-0.3-0.7-0.7-0.9-1.1c-0.2-0.4-0.3-1-0.3-1.7c0-0.7,0.1-1.4,0.4-1.9
				c0.2-0.4,0.4-0.7,0.8-1c0.3-0.3,0.7-0.5,1-0.6c0.5-0.2,1.2-0.3,2.1-0.3c1.2,0,2.1,0.2,2.7,0.6c0.6,0.4,1.1,1,1.3,1.9l-2.6,0.3
				c-0.1-0.3-0.2-0.5-0.4-0.7c-0.2-0.2-0.5-0.2-0.9-0.2c-0.5,0-0.8,0.2-1.1,0.5c-0.3,0.3-0.4,0.8-0.4,1.5c0,0.6,0.1,1,0.4,1.4
				c0.3,0.3,0.6,0.5,1.1,0.5c0.4,0,0.7-0.1,0.9-0.3C229.9,106,230.1,105.7,230.2,105.3z"/>
			<path class="st1" d="M240.5,105.3l2.6,0.3c-0.1,0.5-0.4,1-0.7,1.4c-0.3,0.4-0.8,0.7-1.3,0.9c-0.5,0.2-1.2,0.3-2,0.3
				c-0.8,0-1.4-0.1-1.9-0.2c-0.5-0.1-0.9-0.4-1.3-0.7c-0.4-0.3-0.7-0.7-0.9-1.1c-0.2-0.4-0.3-1-0.3-1.7c0-0.7,0.1-1.4,0.4-1.9
				c0.2-0.4,0.4-0.7,0.8-1c0.3-0.3,0.7-0.5,1-0.6c0.5-0.2,1.2-0.3,2.1-0.3c1.2,0,2.1,0.2,2.7,0.6c0.6,0.4,1.1,1,1.3,1.9l-2.6,0.3
				c-0.1-0.3-0.2-0.5-0.4-0.7c-0.2-0.2-0.5-0.2-0.9-0.2c-0.5,0-0.8,0.2-1.1,0.5c-0.3,0.3-0.4,0.8-0.4,1.5c0,0.6,0.1,1,0.4,1.4
				c0.3,0.3,0.6,0.5,1.1,0.5c0.4,0,0.7-0.1,0.9-0.3C240.2,106,240.4,105.7,240.5,105.3z"/>
			<path class="st1" d="M253.5,105.3h-5.6c0.1,0.4,0.2,0.8,0.4,1c0.3,0.3,0.6,0.5,1,0.5c0.3,0,0.5-0.1,0.8-0.2
				c0.1-0.1,0.3-0.2,0.5-0.5l2.7,0.3c-0.4,0.7-0.9,1.2-1.5,1.6c-0.6,0.3-1.4,0.5-2.5,0.5c-1,0-1.7-0.1-2.3-0.4
				c-0.5-0.3-1-0.7-1.4-1.3s-0.5-1.3-0.5-2.1c0-1.1,0.4-2,1.1-2.7c0.7-0.7,1.7-1,3-1c1,0,1.9,0.2,2.4,0.5c0.6,0.3,1.1,0.8,1.4,1.4
				c0.3,0.6,0.5,1.4,0.5,2.3V105.3z M250.7,103.9c-0.1-0.5-0.2-0.9-0.4-1.1c-0.2-0.2-0.5-0.3-0.9-0.3c-0.4,0-0.8,0.2-1.1,0.5
				c-0.2,0.2-0.3,0.5-0.3,1H250.7z"/>
			<path class="st1" d="M255.3,106.2l2.7-0.3c0.1,0.3,0.3,0.6,0.5,0.7c0.2,0.1,0.5,0.2,0.8,0.2c0.4,0,0.7-0.1,0.9-0.2
				c0.2-0.1,0.2-0.3,0.2-0.4c0-0.2-0.1-0.4-0.3-0.5c-0.1-0.1-0.5-0.2-1.2-0.3c-1-0.2-1.6-0.3-2-0.5c-0.4-0.1-0.7-0.4-0.9-0.7
				c-0.3-0.3-0.4-0.7-0.4-1.2c0-0.5,0.1-0.9,0.4-1.2c0.3-0.3,0.7-0.6,1.1-0.8c0.5-0.2,1.1-0.3,2-0.3c0.9,0,1.5,0.1,1.9,0.2
				c0.4,0.1,0.8,0.3,1,0.6c0.3,0.3,0.5,0.7,0.7,1.1l-2.6,0.3c-0.1-0.2-0.2-0.4-0.3-0.5c-0.2-0.1-0.5-0.2-0.8-0.2
				c-0.3,0-0.5,0.1-0.7,0.2c-0.1,0.1-0.2,0.2-0.2,0.4c0,0.2,0.1,0.3,0.3,0.4c0.2,0.1,0.6,0.2,1.2,0.2c0.9,0.1,1.6,0.2,2.1,0.4
				c0.4,0.2,0.8,0.5,1,0.8c0.2,0.3,0.4,0.7,0.4,1.1c0,0.4-0.1,0.8-0.4,1.2c-0.3,0.4-0.6,0.7-1.2,0.9c-0.5,0.2-1.3,0.3-2.2,0.3
				c-1.3,0-2.3-0.2-2.8-0.6C255.8,107.4,255.5,106.9,255.3,106.2z"/>
			<path class="st1" d="M264.9,106.2l2.7-0.3c0.1,0.3,0.3,0.6,0.5,0.7c0.2,0.1,0.5,0.2,0.8,0.2c0.4,0,0.7-0.1,0.9-0.2
				c0.2-0.1,0.2-0.3,0.2-0.4c0-0.2-0.1-0.4-0.3-0.5c-0.1-0.1-0.5-0.2-1.2-0.3c-1-0.2-1.6-0.3-2-0.5c-0.4-0.1-0.7-0.4-0.9-0.7
				c-0.3-0.3-0.4-0.7-0.4-1.2c0-0.5,0.1-0.9,0.4-1.2c0.3-0.3,0.7-0.6,1.1-0.8c0.5-0.2,1.1-0.3,2-0.3c0.9,0,1.5,0.1,1.9,0.2
				c0.4,0.1,0.8,0.3,1,0.6c0.3,0.3,0.5,0.7,0.7,1.1l-2.6,0.3c-0.1-0.2-0.2-0.4-0.3-0.5c-0.2-0.1-0.5-0.2-0.8-0.2
				c-0.3,0-0.5,0.1-0.7,0.2c-0.1,0.1-0.2,0.2-0.2,0.4c0,0.2,0.1,0.3,0.3,0.4c0.2,0.1,0.6,0.2,1.2,0.2c0.9,0.1,1.6,0.2,2.1,0.4
				c0.4,0.2,0.8,0.5,1,0.8c0.2,0.3,0.4,0.7,0.4,1.1c0,0.4-0.1,0.8-0.4,1.2c-0.3,0.4-0.6,0.7-1.2,0.9c-0.5,0.2-1.3,0.3-2.2,0.3
				c-1.3,0-2.3-0.2-2.8-0.6C265.4,107.4,265,106.9,264.9,106.2z"/>
			<path class="st1" d="M280.7,101h2.6v1.2c0.2-0.5,0.5-0.9,0.8-1.1c0.3-0.2,0.6-0.3,1-0.3c0.4,0,0.9,0.1,1.3,0.4l-0.9,2
				c-0.3-0.1-0.6-0.2-0.8-0.2c-0.4,0-0.6,0.1-0.8,0.4c-0.3,0.4-0.4,1.2-0.4,2.4v2.4h-2.8V101z"/>
			<path class="st1" d="M296.1,105.3h-5.6c0,0.4,0.2,0.8,0.4,1c0.3,0.3,0.6,0.5,1,0.5c0.3,0,0.5-0.1,0.8-0.2
				c0.1-0.1,0.3-0.2,0.5-0.5l2.7,0.3c-0.4,0.7-0.9,1.2-1.5,1.6c-0.6,0.3-1.4,0.5-2.5,0.5c-1,0-1.7-0.1-2.3-0.4
				c-0.5-0.3-1-0.7-1.4-1.3c-0.4-0.6-0.5-1.3-0.5-2.1c0-1.1,0.4-2,1.1-2.7c0.7-0.7,1.7-1,3-1c1,0,1.9,0.2,2.4,0.5
				c0.6,0.3,1.1,0.8,1.4,1.4c0.3,0.6,0.5,1.4,0.5,2.3V105.3z M293.3,103.9c-0.1-0.5-0.2-0.9-0.4-1.1c-0.2-0.2-0.5-0.3-0.9-0.3
				c-0.4,0-0.8,0.2-1.1,0.5c-0.2,0.2-0.3,0.5-0.3,1H293.3z"/>
			<path class="st1" d="M300.9,103.3l-2.6-0.3c0.1-0.5,0.2-0.8,0.4-1.1c0.2-0.3,0.5-0.5,0.8-0.7c0.3-0.1,0.6-0.2,1-0.3
				c0.4-0.1,0.9-0.1,1.4-0.1c0.8,0,1.5,0,2,0.1c0.5,0.1,0.9,0.3,1.3,0.6c0.2,0.2,0.4,0.5,0.6,0.9c0.1,0.4,0.2,0.7,0.2,1.1v3.2
				c0,0.3,0,0.6,0.1,0.8c0,0.2,0.1,0.4,0.3,0.7h-2.6c-0.1-0.2-0.2-0.3-0.2-0.4c0-0.1-0.1-0.3-0.1-0.5c-0.4,0.3-0.7,0.6-1.1,0.7
				c-0.5,0.2-1.1,0.3-1.7,0.3c-0.9,0-1.5-0.2-2-0.6c-0.4-0.4-0.7-0.9-0.7-1.5c0-0.5,0.2-1,0.5-1.4c0.3-0.4,0.9-0.6,1.8-0.8
				c1-0.2,1.7-0.4,2-0.4c0.3-0.1,0.6-0.2,1-0.3c0-0.3-0.1-0.6-0.2-0.7c-0.1-0.1-0.4-0.2-0.7-0.2c-0.5,0-0.8,0.1-1,0.2
				C301.2,102.8,301,103,300.9,103.3z M303.3,104.7c-0.4,0.1-0.8,0.3-1.2,0.4c-0.6,0.1-0.9,0.3-1.1,0.4c-0.2,0.1-0.2,0.3-0.2,0.5
				c0,0.2,0.1,0.4,0.2,0.5c0.2,0.1,0.4,0.2,0.7,0.2c0.3,0,0.6-0.1,0.9-0.2c0.3-0.1,0.5-0.3,0.6-0.5c0.1-0.2,0.2-0.5,0.2-0.8V104.7z"
				/>
			<path class="st1" d="M308.8,98.2h2.8v10h-2.8V98.2z"/>
		</g>
	</g>
	<g>
		<g>
			<polygon class="st9" points="95.1,4.2 69.7,68.1 44.7,4.2 7.6,4.2 49,109.9 81.1,109.9 123.2,4.2 			"/>
		</g>
	</g>
	<g>
		<g>
			<path class="st3" d="M301.3,40.9l-14.7,18.4L272,40.9h-15.4v32.3l-17.1-32.3h-13.9l-16.1,30.5H180l0-2.3h18.9l1.9-9.9H180V57
				h30.2V40.9h-91.4V57h14.5v30.5h16.7V57h13.4v30.5h56.4l4.1-8h17.6l4.1,8h27.8V68l13.2,16.7L300,67.9v19.5h16.7V40.9H301.3z
				 M237.6,67.8h-10l5-9.5L237.6,67.8z"/>
		</g>
	</g>
</g>
</svg>
